# xmcd
# 
# Track frame offsets:
#     150
#     16409
#     33955
#     50164
#     65617
#     81748
#     102303
#     123137
#     139075
#     153232
#     172001
# 
# Disc length: 2523
# 
# Revision: 1
# Processed by: cddbd v1.5.2PL0 Copyright (c) Steve Scherf et al.
# Submitted via: BonkEnc v1.0.8
# 
DISCID=9609d90b
DTITLE=Reba McEntire - All The Women I Am
DYEAR=2010
DGENRE=Country
TTITLE0=Turn On The Radio
TTITLE1=If I Were A Boy
TTITLE2=The Bridge You Burn
TTITLE3=Cry
TTITLE4=When Love Gets A Hold Of You
TTITLE5=Somebody's Chelsea
TTITLE6=All The Women I Am
TTITLE7=The Day She Got Divorced
TTITLE8=A Little Want to
TTITLE9=When You Have A Child
TTITLE10=I Want A Cowboy (Dance Mix)
EXTD=
EXTT0=
EXTT1=
EXTT2=
EXTT3=
EXTT4=
EXTT5=
EXTT6=
EXTT7=
EXTT8=
EXTT9=
EXTT10=
PLAYORDER=
